<svg width="120" height="120" viewBox="0 0 120 120" fill="none" xmlns="http://www.w3.org/2000/svg">
<circle cx="60.5" cy="59.5" r="38.5" fill="#F8B843"/>
<g filter="url(#filter0_d_611_2020)">
<path d="M25.8813 39.8304C25.3037 39.4969 24.5634 39.6942 24.2471 40.2813C19.3149 49.4385 18.0546 60.1497 20.7544 70.2255C23.5586 80.6909 30.4053 89.6136 39.7882 95.0309C49.1712 100.448 60.3219 101.916 70.7872 99.112C80.8631 96.4121 89.509 89.9651 94.9733 81.1151C95.3237 80.5476 95.1243 79.8078 94.5467 79.4744L60.214 59.6524L25.8813 39.8304Z" fill="#036B74"/>
</g>
<g filter="url(#filter1_d_611_2020)">
<path d="M23.4417 80.8828C22.8641 81.2162 22.6649 81.9559 23.0141 82.5241C28.8527 92.0208 38.1141 98.9397 48.9117 101.833C60.0987 104.83 72.0182 103.261 82.0482 97.4704C92.0781 91.6796 99.3969 82.1415 102.394 70.9546C105.288 60.157 103.926 48.677 98.6213 38.8723C98.3039 38.2857 97.5637 38.0884 96.9861 38.4219L60.2139 59.6523L23.4417 80.8828Z" fill="#D00416"/>
</g>
<g filter="url(#filter2_d_611_2020)">
<path d="M60.2177 105.062C60.2177 105.729 60.7585 106.271 61.4253 106.254C73.3503 105.945 84.7219 101.074 93.1787 92.6169C101.92 83.8751 106.832 72.0187 106.832 59.656C106.832 47.2932 101.92 35.4368 93.1787 26.695C84.7219 18.2382 73.3503 13.3664 61.4253 13.0577C60.7586 13.0405 60.2177 13.5828 60.2177 14.2497L60.2177 59.656L60.2177 105.062Z" fill="#2D6A4F"/>
</g>
<g filter="url(#filter3_d_611_2020)">
<circle cx="60.2176" cy="59.6559" r="26.5675" fill="white"/>
</g>
<defs>
<filter id="filter0_d_611_2020" x="14.5319" y="33.6305" width="85.4453" height="70.4964" filterUnits="userSpaceOnUse" color-interpolation-filters="sRGB">
<feFlood flood-opacity="0" result="BackgroundImageFix"/>
<feColorMatrix in="SourceAlpha" type="matrix" values="0 0 0 0 0 0 0 0 0 0 0 0 0 0 0 0 0 0 127 0" result="hardAlpha"/>
<feOffset dy="-1.20761"/>
<feGaussianBlur stdDeviation="2.41523"/>
<feColorMatrix type="matrix" values="0 0 0 0 0 0 0 0 0 0 0 0 0 0 0 0 0 0 0.12 0"/>
<feBlend mode="normal" in2="BackgroundImageFix" result="effect1_dropShadow_611_2020"/>
<feBlend mode="normal" in="SourceGraphic" in2="effect1_dropShadow_611_2020" result="shape"/>
</filter>
<filter id="filter1_d_611_2020" x="18.0109" y="32.2219" width="90.7022" height="74.7218" filterUnits="userSpaceOnUse" color-interpolation-filters="sRGB">
<feFlood flood-opacity="0" result="BackgroundImageFix"/>
<feColorMatrix in="SourceAlpha" type="matrix" values="0 0 0 0 0 0 0 0 0 0 0 0 0 0 0 0 0 0 127 0" result="hardAlpha"/>
<feOffset dy="-1.20761"/>
<feGaussianBlur stdDeviation="2.41523"/>
<feColorMatrix type="matrix" values="0 0 0 0 0 0 0 0 0 0 0 0 0 0 0 0 0 0 0.12 0"/>
<feBlend mode="normal" in2="BackgroundImageFix" result="effect1_dropShadow_611_2020"/>
<feBlend mode="normal" in="SourceGraphic" in2="effect1_dropShadow_611_2020" result="shape"/>
</filter>
<filter id="filter2_d_611_2020" x="55.3873" y="7.01931" width="56.2747" height="102.858" filterUnits="userSpaceOnUse" color-interpolation-filters="sRGB">
<feFlood flood-opacity="0" result="BackgroundImageFix"/>
<feColorMatrix in="SourceAlpha" type="matrix" values="0 0 0 0 0 0 0 0 0 0 0 0 0 0 0 0 0 0 127 0" result="hardAlpha"/>
<feOffset dy="-1.20761"/>
<feGaussianBlur stdDeviation="2.41523"/>
<feColorMatrix type="matrix" values="0 0 0 0 0 0 0 0 0 0 0 0 0 0 0 0 0 0 0.12 0"/>
<feBlend mode="normal" in2="BackgroundImageFix" result="effect1_dropShadow_611_2020"/>
<feBlend mode="normal" in="SourceGraphic" in2="effect1_dropShadow_611_2020" result="shape"/>
</filter>
<filter id="filter3_d_611_2020" x="27.6121" y="28.2579" width="65.2111" height="65.2111" filterUnits="userSpaceOnUse" color-interpolation-filters="sRGB">
<feFlood flood-opacity="0" result="BackgroundImageFix"/>
<feColorMatrix in="SourceAlpha" type="matrix" values="0 0 0 0 0 0 0 0 0 0 0 0 0 0 0 0 0 0 127 0" result="hardAlpha"/>
<feOffset dy="1.20761"/>
<feGaussianBlur stdDeviation="3.01903"/>
<feColorMatrix type="matrix" values="0 0 0 0 0 0 0 0 0 0 0 0 0 0 0 0 0 0 0.1 0"/>
<feBlend mode="normal" in2="BackgroundImageFix" result="effect1_dropShadow_611_2020"/>
<feBlend mode="normal" in="SourceGraphic" in2="effect1_dropShadow_611_2020" result="shape"/>
</filter>
</defs>
</svg>
