<svg width="139" height="94" viewBox="0 0 139 94" fill="none" xmlns="http://www.w3.org/2000/svg">
<rect opacity="0.2" x="0.00952148" y="0.554443" width="8.99772" height="92.548" rx="2.57078" fill="#63F2FF"/>
<rect x="0.00952148" y="43.2294" width="8.99772" height="49.8731" rx="2.57078" fill="#63F2FF"/>
<rect x="0.00952148" y="61.4821" width="8.99772" height="31.6206" rx="2.57078" fill="#036B74"/>
<rect opacity="0.2" x="21.645" y="0.554565" width="8.99772" height="92.548" rx="2.57078" fill="#63F2FF"/>
<rect x="21.645" y="31.4038" width="8.99772" height="61.6987" rx="2.57078" fill="#63F2FF"/>
<rect x="21.645" y="54.0266" width="8.99772" height="39.0758" rx="2.57078" fill="#036B74"/>
<rect opacity="0.2" x="43.2808" y="0.554565" width="8.99772" height="92.548" rx="2.57078" fill="#63F2FF"/>
<rect x="43.2808" y="54.0266" width="8.99772" height="39.0758" rx="2.57078" fill="#63F2FF"/>
<rect x="43.2808" y="68.4231" width="8.99772" height="24.6795" rx="2.57078" fill="#036B74"/>
<rect opacity="0.2" x="64.916" y="0.554565" width="8.99772" height="92.548" rx="2.57078" fill="#63F2FF"/>
<rect x="64.916" y="39.3732" width="8.99772" height="53.7293" rx="2.57078" fill="#63F2FF"/>
<rect x="64.916" y="58.9111" width="8.99772" height="34.1913" rx="2.57078" fill="#036B74"/>
<rect opacity="0.2" x="86.5515" y="0.554565" width="8.99772" height="92.548" rx="2.57078" fill="#63F2FF"/>
<rect x="86.5515" y="25.234" width="8.99772" height="67.8685" rx="2.57078" fill="#63F2FF"/>
<rect x="86.5515" y="50.1704" width="8.99772" height="42.932" rx="2.57078" fill="#036B74"/>
<rect opacity="0.2" x="108.187" y="0.554565" width="8.99772" height="92.548" rx="2.57078" fill="#63F2FF"/>
<rect x="108.187" y="66.1094" width="8.99772" height="26.9932" rx="2.57078" fill="#63F2FF"/>
<rect x="108.187" y="75.8782" width="8.99772" height="17.2242" rx="2.57078" fill="#036B74"/>
<rect opacity="0.2" x="129.823" y="0.554443" width="8.99772" height="92.548" rx="2.57078" fill="#63F2FF"/>
<rect x="129.823" y="43.2294" width="8.99772" height="49.8731" rx="2.57078" fill="#63F2FF"/>
<rect x="129.823" y="61.4821" width="8.99772" height="31.6206" rx="2.57078" fill="#036B74"/>
</svg>
