<svg width="154" height="108" viewBox="0 0 154 108" fill="none" xmlns="http://www.w3.org/2000/svg">
<rect opacity="0.2" x="8.00952" y="0.554443" width="8.99772" height="92.548" rx="2.57078" fill="#63F2FF"/>
<rect x="8.00952" y="43.2294" width="8.99772" height="49.8731" rx="2.57078" fill="#63F2FF"/>
<rect x="8.00952" y="61.4821" width="8.99772" height="31.6206" rx="2.57078" fill="#036B74"/>
<rect opacity="0.2" x="29.645" y="0.554565" width="8.99772" height="92.548" rx="2.57078" fill="#63F2FF"/>
<rect x="29.645" y="31.4038" width="8.99772" height="61.6987" rx="2.57078" fill="#63F2FF"/>
<rect x="29.645" y="54.0266" width="8.99772" height="39.0758" rx="2.57078" fill="#036B74"/>
<rect opacity="0.2" x="51.2808" y="0.554565" width="8.99772" height="92.548" rx="2.57078" fill="#63F2FF"/>
<rect x="51.2808" y="54.0266" width="8.99772" height="39.0758" rx="2.57078" fill="#63F2FF"/>
<rect x="51.2808" y="68.4231" width="8.99772" height="24.6795" rx="2.57078" fill="#036B74"/>
<rect opacity="0.2" x="72.916" y="0.554565" width="8.99772" height="92.548" rx="2.57078" fill="#63F2FF"/>
<rect x="72.916" y="39.3732" width="8.99772" height="53.7293" rx="2.57078" fill="#63F2FF"/>
<rect x="72.916" y="58.9111" width="8.99772" height="34.1913" rx="2.57078" fill="#036B74"/>
<rect opacity="0.2" x="94.5515" y="0.554565" width="8.99772" height="92.548" rx="2.57078" fill="#63F2FF"/>
<rect x="94.5515" y="25.234" width="8.99772" height="67.8685" rx="2.57078" fill="#63F2FF"/>
<rect x="94.5515" y="50.1704" width="8.99772" height="42.932" rx="2.57078" fill="#036B74"/>
<rect opacity="0.2" x="116.187" y="0.554565" width="8.99772" height="92.548" rx="2.57078" fill="#63F2FF"/>
<rect x="116.187" y="66.1094" width="8.99772" height="26.9932" rx="2.57078" fill="#63F2FF"/>
<rect x="116.187" y="75.8782" width="8.99772" height="17.2242" rx="2.57078" fill="#036B74"/>
<rect opacity="0.2" x="137.823" y="0.554443" width="8.99772" height="92.548" rx="2.57078" fill="#63F2FF"/>
<rect x="137.823" y="43.2294" width="8.99772" height="49.8731" rx="2.57078" fill="#63F2FF"/>
<rect x="137.823" y="61.4821" width="8.99772" height="31.6206" rx="2.57078" fill="#036B74"/>
<path d="M2.05842 104.588C1.82184 104.588 1.60826 104.56 1.41768 104.504C1.2271 104.451 1.06281 104.371 0.924805 104.262C0.7868 104.154 0.680011 104.019 0.604437 103.858C0.532148 103.701 0.496004 103.517 0.496004 103.306C0.496004 103.231 0.502576 103.142 0.515719 103.04C0.528863 102.938 0.553506 102.823 0.58965 102.695C0.625794 102.564 0.680011 102.417 0.752299 102.256L1.35853 102.468C1.32239 102.57 1.29117 102.664 1.26489 102.749C1.2386 102.831 1.21889 102.909 1.20574 102.981C1.1926 103.05 1.18603 103.119 1.18603 103.188C1.18603 103.316 1.2156 103.434 1.27475 103.543C1.33389 103.651 1.42918 103.737 1.56061 103.799C1.69205 103.865 1.86455 103.898 2.07813 103.898C2.27528 103.898 2.43957 103.875 2.571 103.829C2.70244 103.786 2.80594 103.725 2.88151 103.646C2.95709 103.571 3.01131 103.482 3.04416 103.38C3.07702 103.278 3.09345 103.168 3.09345 103.05C3.09345 102.958 3.08195 102.854 3.05895 102.739C3.03923 102.624 3.00966 102.5 2.97023 102.365C2.9308 102.227 2.88644 102.082 2.83716 101.931L3.52718 101.754C3.57318 101.944 3.60933 102.092 3.63561 102.197C3.66518 102.302 3.68819 102.381 3.70461 102.434C3.73747 102.532 3.7769 102.608 3.8229 102.661C3.87219 102.71 3.92641 102.743 3.98555 102.759C4.04798 102.776 4.11699 102.784 4.19256 102.784C4.25499 102.784 4.31249 102.774 4.36507 102.754C4.41764 102.734 4.46528 102.693 4.508 102.631C4.554 102.565 4.59507 102.465 4.63122 102.33C4.66736 102.196 4.70022 102.01 4.72979 101.773L5.38039 101.877C5.36724 101.952 5.3541 102.033 5.34096 102.118C5.32781 102.204 5.31631 102.284 5.30646 102.36C5.2966 102.432 5.29167 102.491 5.29167 102.537C5.29167 102.58 5.30317 102.619 5.32617 102.656C5.35246 102.692 5.39846 102.721 5.46417 102.744C5.52989 102.767 5.62354 102.779 5.74511 102.779C5.89626 102.779 6.00634 102.748 6.07534 102.685C6.14763 102.619 6.18377 102.521 6.18377 102.389C6.18377 102.314 6.18213 102.233 6.17884 102.148C6.17556 102.059 6.16898 101.961 6.15913 101.852C6.15256 101.741 6.13941 101.614 6.1197 101.473L6.7555 101.423C6.78179 101.729 6.81136 101.972 6.84422 102.153C6.87708 102.334 6.9198 102.47 6.97237 102.562C7.02823 102.651 7.09887 102.71 7.18431 102.739C7.26974 102.766 7.37653 102.779 7.50467 102.779C7.62953 102.779 7.71825 102.812 7.77083 102.877C7.82668 102.94 7.85461 103.019 7.85461 103.114C7.85461 103.216 7.82011 103.301 7.75111 103.37C7.68211 103.436 7.58353 103.469 7.45539 103.469C7.31738 103.469 7.18431 103.451 7.05616 103.415C6.92801 103.378 6.81465 103.314 6.71608 103.222C6.62079 103.127 6.5485 102.994 6.49921 102.823L6.6865 102.853C6.64379 103.03 6.5715 103.163 6.46964 103.252C6.37106 103.341 6.25935 103.4 6.13448 103.429C6.00962 103.456 5.88476 103.469 5.7599 103.469C5.59561 103.469 5.44939 103.444 5.32124 103.395C5.19638 103.346 5.09781 103.275 5.02552 103.183C4.95651 103.091 4.92366 102.979 4.92694 102.848H5.09452C5.04523 103.029 4.97787 103.163 4.89244 103.252C4.80701 103.341 4.71172 103.4 4.60657 103.429C4.50143 103.456 4.39464 103.469 4.28621 103.469C4.20077 103.469 4.11863 103.461 4.03977 103.444C3.96091 103.428 3.88862 103.401 3.8229 103.365C3.76047 103.326 3.70626 103.275 3.66026 103.213C3.61425 103.147 3.58304 103.068 3.56661 102.976L3.74897 103.173C3.7424 103.397 3.69804 103.595 3.6159 103.77C3.53375 103.944 3.41875 104.092 3.27089 104.213C3.12631 104.335 2.95052 104.427 2.74351 104.489C2.53979 104.555 2.31142 104.588 2.05842 104.588ZM11.2133 103.469C11.0457 103.469 10.8847 103.454 10.7303 103.424C10.5759 103.392 10.4362 103.349 10.3114 103.296C10.1898 103.244 10.0896 103.185 10.0107 103.119L10.4543 102.641C10.5726 102.69 10.6942 102.726 10.819 102.749C10.9439 102.769 11.0917 102.779 11.2626 102.779C11.3875 102.779 11.4762 102.812 11.5288 102.877C11.5846 102.94 11.6125 103.019 11.6125 103.114C11.6125 103.216 11.578 103.301 11.509 103.37C11.44 103.436 11.3415 103.469 11.2133 103.469ZM7.46255 103.469L7.51184 102.779H8.61587C8.92474 102.779 9.18104 102.767 9.38476 102.744C9.59176 102.721 9.75606 102.688 9.87763 102.646C9.99921 102.6 10.0846 102.547 10.1339 102.488C10.1865 102.429 10.2128 102.365 10.2128 102.296C10.2128 102.233 10.198 102.174 10.1684 102.118C10.1389 102.059 10.0945 102.012 10.0354 101.975C9.97621 101.939 9.89899 101.921 9.8037 101.921C9.68212 101.921 9.56055 101.951 9.43897 102.01C9.3174 102.066 9.19911 102.143 9.0841 102.242C8.9691 102.337 8.85902 102.444 8.75388 102.562C8.65202 102.68 8.55837 102.8 8.47294 102.922L7.7287 102.818C7.8667 102.605 8.01621 102.403 8.17722 102.212C8.34151 102.018 8.51401 101.849 8.69473 101.704C8.87874 101.557 9.06767 101.442 9.26154 101.359C9.45869 101.274 9.65912 101.231 9.86284 101.231C10.0797 101.231 10.2654 101.276 10.4198 101.364C10.5742 101.453 10.6925 101.575 10.7747 101.729C10.8601 101.883 10.9028 102.063 10.9028 102.266C10.9028 102.48 10.842 102.672 10.7204 102.843C10.6022 103.014 10.4001 103.155 10.1142 103.267C9.99263 103.313 9.8612 103.351 9.71991 103.38C9.57862 103.41 9.41269 103.431 9.22211 103.444C9.03153 103.461 8.80317 103.469 8.53701 103.469H7.46255ZM7.97514 102.966L7.87163 99.8364H8.56166L8.65037 102.202L7.97514 102.966ZM11.2169 103.469L11.2661 102.779C11.3746 102.779 11.4633 102.771 11.5323 102.754C11.6013 102.734 11.6572 102.693 11.6999 102.631C11.7459 102.565 11.7853 102.468 11.8182 102.34C11.8543 102.209 11.8937 102.031 11.9365 101.808L12.5772 101.926C12.5641 101.998 12.546 102.089 12.523 102.197C12.5033 102.306 12.4934 102.399 12.4934 102.478C12.4934 102.541 12.5049 102.595 12.5279 102.641C12.5542 102.684 12.5969 102.718 12.6561 102.744C12.7185 102.767 12.8039 102.779 12.9123 102.779C12.9978 102.779 13.0701 102.771 13.1292 102.754C13.1916 102.734 13.2442 102.693 13.2869 102.631C13.3329 102.565 13.3724 102.465 13.4052 102.33C13.4414 102.192 13.4759 102.007 13.5087 101.773L14.1593 101.877C14.1462 101.952 14.133 102.033 14.1199 102.118C14.1067 102.204 14.0952 102.283 14.0854 102.355C14.0755 102.427 14.0706 102.486 14.0706 102.532C14.0706 102.575 14.0821 102.616 14.1051 102.656C14.1314 102.692 14.1774 102.721 14.2431 102.744C14.3121 102.767 14.4074 102.779 14.529 102.779C14.6768 102.779 14.7853 102.748 14.8543 102.685C14.9266 102.619 14.9627 102.521 14.9627 102.389C14.9627 102.314 14.9611 102.233 14.9578 102.148C14.9545 102.059 14.9479 101.961 14.9381 101.852C14.9315 101.741 14.9183 101.614 14.8986 101.473L15.5344 101.423C15.5574 101.706 15.5837 101.936 15.6133 102.113C15.6429 102.291 15.6823 102.429 15.7316 102.527C15.7842 102.623 15.8532 102.688 15.9386 102.725C16.0273 102.761 16.1423 102.779 16.2836 102.779C16.4085 102.779 16.4972 102.812 16.5498 102.877C16.6056 102.94 16.6335 103.019 16.6335 103.114C16.6335 103.216 16.599 103.301 16.53 103.37C16.4643 103.436 16.3658 103.469 16.2343 103.469C16.1456 103.469 16.0536 103.461 15.9583 103.444C15.863 103.431 15.771 103.403 15.6823 103.36C15.5936 103.314 15.5147 103.249 15.4457 103.163C15.3767 103.078 15.3225 102.964 15.2831 102.823L15.3718 102.853C15.3258 103.017 15.2634 103.144 15.1845 103.232C15.1056 103.321 15.0087 103.383 14.8937 103.42C14.7787 103.452 14.6407 103.469 14.4797 103.469C14.3318 103.469 14.2004 103.449 14.0854 103.41C13.9704 103.37 13.8784 103.306 13.8094 103.217C13.7437 103.125 13.7092 103.002 13.7059 102.848H13.8735C13.8077 103.032 13.7322 103.168 13.6467 103.257C13.5613 103.346 13.4578 103.403 13.3362 103.429C13.2146 103.456 13.0619 103.469 12.8778 103.469C12.7661 103.469 12.6561 103.457 12.5476 103.434C12.4392 103.408 12.3423 103.351 12.2568 103.262C12.1714 103.17 12.109 103.025 12.0695 102.828L12.3357 102.818C12.2667 103.012 12.1763 103.155 12.0646 103.247C11.9562 103.339 11.8313 103.4 11.69 103.429C11.5487 103.456 11.391 103.469 11.2169 103.469ZM16.2371 103.469L16.2863 102.779C16.4408 102.779 16.5591 102.777 16.6412 102.774C16.7266 102.771 16.7907 102.767 16.8334 102.764C16.8761 102.757 16.9123 102.753 16.9419 102.749C16.909 102.716 16.8663 102.669 16.8137 102.606C16.7611 102.544 16.7135 102.463 16.6708 102.365C16.6314 102.266 16.6116 102.148 16.6116 102.01C16.6116 101.81 16.6626 101.634 16.7644 101.483C16.8696 101.331 17.0109 101.213 17.1883 101.128C17.3657 101.042 17.5645 101 17.7847 101C17.8898 101 17.9868 101.006 18.0755 101.019C18.1675 101.032 18.2595 101.052 18.3515 101.078L18.2431 101.734C18.1773 101.718 18.1083 101.704 18.036 101.695C17.9638 101.685 17.8997 101.68 17.8438 101.68C17.7354 101.68 17.6401 101.698 17.558 101.734C17.4791 101.767 17.4167 101.814 17.3707 101.877C17.3279 101.936 17.3066 102.008 17.3066 102.094C17.3066 102.15 17.3164 102.202 17.3362 102.251C17.3592 102.301 17.3871 102.345 17.42 102.385C17.4528 102.424 17.489 102.458 17.5284 102.488C17.5678 102.518 17.6056 102.542 17.6417 102.562C17.6812 102.578 17.714 102.59 17.7403 102.596C17.8225 102.573 17.8931 102.554 17.9523 102.537C18.0147 102.518 18.0738 102.5 18.1297 102.483C18.1888 102.463 18.2529 102.439 18.3219 102.409C18.3909 102.38 18.4763 102.343 18.5782 102.301L18.8 102.951C18.524 103.086 18.2546 103.191 17.9917 103.267C17.7288 103.342 17.4561 103.395 17.1735 103.424C16.8909 103.454 16.5788 103.469 16.2371 103.469ZM17.5925 100.541C17.4906 100.541 17.4035 100.507 17.3312 100.438C17.2622 100.369 17.2277 100.283 17.2277 100.181C17.2277 100.08 17.2622 99.9925 17.3312 99.9202C17.4035 99.8479 17.4906 99.8117 17.5925 99.8117C17.691 99.8117 17.7748 99.8479 17.8438 99.9202C17.9161 99.9925 17.9523 100.08 17.9523 100.181C17.9523 100.283 17.9161 100.369 17.8438 100.438C17.7748 100.507 17.691 100.541 17.5925 100.541ZM19.365 103.444L19.2714 100.181H19.9614L20.0551 103.444H19.365ZM19.094 99.8659L19.0102 99.5209C19.1252 99.5012 19.2106 99.4848 19.2665 99.4716C19.3256 99.4585 19.388 99.4437 19.4537 99.4273L19.4045 99.5505C19.319 99.5209 19.2369 99.4634 19.158 99.378C19.0825 99.2893 19.0447 99.1891 19.0447 99.0773C19.0447 98.9591 19.071 98.8638 19.1235 98.7915C19.1761 98.7192 19.2435 98.6666 19.3256 98.6338C19.4077 98.6009 19.4932 98.5845 19.5819 98.5845C19.6312 98.5845 19.6772 98.5878 19.7199 98.5943C19.7659 98.6009 19.807 98.6108 19.8431 98.6239L19.8037 98.9788C19.7708 98.9722 19.738 98.9656 19.7051 98.9591C19.6723 98.9525 19.6361 98.9492 19.5967 98.9492C19.554 98.9492 19.5145 98.964 19.4784 98.9936C19.4455 99.0198 19.4291 99.0527 19.4291 99.0921C19.4291 99.148 19.4488 99.1973 19.4883 99.24C19.5277 99.2827 19.5737 99.3172 19.6263 99.3435C19.6821 99.3665 19.7281 99.3796 19.7643 99.3829L19.4932 99.4125C19.5819 99.3895 19.6657 99.3665 19.7445 99.3435C19.8234 99.3172 19.8973 99.2909 19.9663 99.2646L20.0649 99.5949C19.9828 99.6244 19.8858 99.6573 19.7741 99.6934C19.6657 99.7263 19.5523 99.7575 19.434 99.7871C19.319 99.8167 19.2057 99.8429 19.094 99.8659Z" fill="#1A3E2E"/>
<path d="M27.5241 104.578L27.3812 103.888C27.6145 103.858 27.8182 103.822 27.9924 103.779C28.1665 103.74 28.3127 103.684 28.431 103.612C28.5493 103.54 28.638 103.441 28.6972 103.316C28.7563 103.188 28.7859 103.024 28.7859 102.823C28.7859 102.629 28.7563 102.475 28.6972 102.36C28.638 102.245 28.5592 102.187 28.4606 102.187C28.3916 102.187 28.3341 102.212 28.2881 102.261C28.2421 102.307 28.2076 102.363 28.1846 102.429C28.1649 102.491 28.155 102.547 28.155 102.596C28.155 102.626 28.1632 102.657 28.1796 102.69C28.1961 102.723 28.2322 102.751 28.2881 102.774C28.3439 102.797 28.431 102.81 28.5493 102.813C28.6709 102.817 28.8352 102.805 29.0422 102.779H29.8702C29.9951 102.779 30.0838 102.812 30.1364 102.877C30.1922 102.94 30.2201 103.019 30.2201 103.114C30.2201 103.216 30.1856 103.301 30.1166 103.37C30.0476 103.436 29.9491 103.469 29.8209 103.469H28.4655C28.2585 103.469 28.0811 103.444 27.9332 103.395C27.7853 103.346 27.672 103.267 27.5931 103.158C27.5143 103.047 27.4748 102.899 27.4748 102.715C27.4748 102.567 27.4995 102.419 27.5488 102.271C27.6013 102.123 27.6736 101.989 27.7656 101.867C27.8576 101.742 27.9644 101.644 28.086 101.571C28.2109 101.496 28.3456 101.458 28.4902 101.458C28.6873 101.458 28.8598 101.519 29.0077 101.64C29.1555 101.762 29.2705 101.923 29.3527 102.123C29.4381 102.324 29.4808 102.542 29.4808 102.779C29.4808 103.15 29.402 103.466 29.2443 103.725C29.0865 103.985 28.8615 104.185 28.569 104.326C28.2766 104.471 27.9283 104.555 27.5241 104.578ZM29.8279 103.469L29.8772 102.779C29.9955 102.779 30.0973 102.767 30.1828 102.744C30.2682 102.721 30.3405 102.675 30.3996 102.606C30.4588 102.534 30.5081 102.429 30.5475 102.291C30.5902 102.153 30.628 101.969 30.6608 101.739L31.3065 101.847C31.2999 101.897 31.2901 101.954 31.2769 102.02C31.2671 102.086 31.2572 102.153 31.2474 102.222C31.2408 102.288 31.2375 102.35 31.2375 102.409C31.2375 102.468 31.249 102.521 31.272 102.567C31.295 102.613 31.3312 102.652 31.3804 102.685C31.433 102.715 31.5004 102.738 31.5825 102.754C31.6679 102.771 31.7715 102.779 31.893 102.779C32.0179 102.779 32.1066 102.812 32.1592 102.877C32.2118 102.94 32.238 103.019 32.238 103.114C32.238 103.216 32.2035 103.301 32.1345 103.37C32.0688 103.436 31.9719 103.469 31.8437 103.469C31.6959 103.469 31.5612 103.457 31.4396 103.434C31.3213 103.411 31.2178 103.374 31.1291 103.321C31.0436 103.265 30.973 103.193 30.9171 103.104C30.8646 103.012 30.8317 102.9 30.8186 102.769H31.0551C30.996 102.927 30.9204 103.053 30.8284 103.148C30.7397 103.24 30.6395 103.309 30.5278 103.355C30.416 103.401 30.2994 103.431 30.1778 103.444C30.0595 103.461 29.9429 103.469 29.8279 103.469ZM31.203 104.612C31.1077 104.612 31.0256 104.578 30.9566 104.509C30.8908 104.443 30.858 104.364 30.858 104.272C30.858 104.177 30.8908 104.095 30.9566 104.026C31.0256 103.957 31.1077 103.922 31.203 103.922C31.295 103.922 31.3739 103.957 31.4396 104.026C31.5053 104.095 31.5382 104.177 31.5382 104.272C31.5382 104.364 31.5053 104.443 31.4396 104.509C31.3739 104.578 31.295 104.612 31.203 104.612ZM30.3503 104.612C30.255 104.612 30.1729 104.578 30.1039 104.509C30.0382 104.443 30.0053 104.364 30.0053 104.272C30.0053 104.177 30.0382 104.095 30.1039 104.026C30.1729 103.957 30.255 103.922 30.3503 103.922C30.4423 103.922 30.5212 103.957 30.5869 104.026C30.6526 104.095 30.6855 104.177 30.6855 104.272C30.6855 104.364 30.6526 104.443 30.5869 104.509C30.5212 104.578 30.4423 104.612 30.3503 104.612ZM31.8446 103.469L31.8939 102.779C32.0451 102.779 32.1535 102.764 32.2192 102.734C32.2849 102.702 32.3244 102.642 32.3375 102.557C32.3506 102.468 32.3539 102.34 32.3474 102.173L32.2586 99.8364H32.9536L33.0522 102.222C33.0587 102.412 33.0505 102.585 33.0275 102.739C33.0078 102.891 32.9569 103.02 32.8747 103.129C32.7959 103.237 32.6727 103.321 32.5051 103.38C32.3408 103.439 32.1206 103.469 31.8446 103.469ZM33.5888 104.578L33.4458 103.888C33.6791 103.858 33.8829 103.822 34.057 103.779C34.2312 103.74 34.3774 103.684 34.4957 103.612C34.614 103.54 34.7027 103.441 34.7618 103.316C34.821 103.188 34.8505 103.024 34.8505 102.823C34.8505 102.629 34.821 102.475 34.7618 102.36C34.7027 102.245 34.6238 102.187 34.5252 102.187C34.4562 102.187 34.3987 102.212 34.3527 102.261C34.3067 102.307 34.2722 102.363 34.2492 102.429C34.2295 102.491 34.2197 102.547 34.2197 102.596C34.2197 102.626 34.2279 102.657 34.2443 102.69C34.2607 102.723 34.2969 102.751 34.3527 102.774C34.4086 102.797 34.4957 102.81 34.614 102.813C34.7355 102.817 34.8998 102.805 35.1068 102.779H35.9349C36.0597 102.779 36.1484 102.812 36.201 102.877C36.2569 102.94 36.2848 103.019 36.2848 103.114C36.2848 103.216 36.2503 103.301 36.1813 103.37C36.1123 103.436 36.0137 103.469 35.8856 103.469H34.5302C34.3232 103.469 34.1457 103.444 33.9979 103.395C33.85 103.346 33.7366 103.267 33.6578 103.158C33.5789 103.047 33.5395 102.899 33.5395 102.715C33.5395 102.567 33.5641 102.419 33.6134 102.271C33.666 102.123 33.7383 101.989 33.8303 101.867C33.9223 101.742 34.0291 101.644 34.1507 101.571C34.2755 101.496 34.4102 101.458 34.5548 101.458C34.752 101.458 34.9245 101.519 35.0723 101.64C35.2202 101.762 35.3352 101.923 35.4173 102.123C35.5028 102.324 35.5455 102.542 35.5455 102.779C35.5455 103.15 35.4666 103.466 35.3089 103.725C35.1512 103.985 34.9261 104.185 34.6337 104.326C34.3412 104.471 33.9929 104.555 33.5888 104.578ZM35.8925 103.469L35.9418 102.779C36.139 102.779 36.2901 102.769 36.3953 102.749C36.5004 102.73 36.5727 102.693 36.6121 102.641C36.6549 102.585 36.6762 102.506 36.6762 102.404C36.6762 102.312 36.6631 102.202 36.6368 102.074C36.6138 101.946 36.5826 101.813 36.5431 101.675C36.507 101.537 36.4676 101.41 36.4248 101.295L37.105 101.108C37.1477 101.22 37.1888 101.349 37.2282 101.497C37.2677 101.645 37.3005 101.798 37.3268 101.956C37.3531 102.11 37.3662 102.26 37.3662 102.404C37.3662 102.628 37.3301 102.81 37.2578 102.951C37.1855 103.089 37.0837 103.196 36.9522 103.272C36.8241 103.347 36.6696 103.4 36.4889 103.429C36.3082 103.456 36.1094 103.469 35.8925 103.469ZM37.1099 104.612C37.0147 104.612 36.9325 104.578 36.8635 104.509C36.7978 104.443 36.7649 104.364 36.7649 104.272C36.7649 104.177 36.7978 104.095 36.8635 104.026C36.9325 103.957 37.0147 103.922 37.1099 103.922C37.2019 103.922 37.2808 103.957 37.3465 104.026C37.4122 104.095 37.4451 104.177 37.4451 104.272C37.4451 104.364 37.4122 104.443 37.3465 104.509C37.2808 104.578 37.2019 104.612 37.1099 104.612ZM36.2573 104.612C36.162 104.612 36.0798 104.578 36.0108 104.509C35.9451 104.443 35.9123 104.364 35.9123 104.272C35.9123 104.177 35.9451 104.095 36.0108 104.026C36.0798 103.957 36.162 103.922 36.2573 103.922C36.3493 103.922 36.4281 103.957 36.4939 104.026C36.5596 104.095 36.5924 104.177 36.5924 104.272C36.5924 104.364 36.5596 104.443 36.4939 104.509C36.4281 104.578 36.3493 104.612 36.2573 104.612Z" fill="#1A3E2E"/>
<path d="M50.5583 104.578L50.4153 103.888C50.6486 103.858 50.8523 103.822 51.0265 103.779C51.2006 103.74 51.3469 103.684 51.4651 103.612C51.5834 103.54 51.6722 103.441 51.7313 103.316C51.7904 103.188 51.82 103.024 51.82 102.823C51.82 102.629 51.7904 102.475 51.7313 102.36C51.6722 102.245 51.5933 102.187 51.4947 102.187C51.4257 102.187 51.3682 102.212 51.3222 102.261C51.2762 102.307 51.2417 102.363 51.2187 102.429C51.199 102.491 51.1891 102.547 51.1891 102.596C51.1891 102.626 51.1974 102.657 51.2138 102.69C51.2302 102.723 51.2664 102.751 51.3222 102.774C51.3781 102.797 51.4651 102.81 51.5834 102.813C51.705 102.817 51.8693 102.805 52.0763 102.779H52.9043C53.0292 102.779 53.1179 102.812 53.1705 102.877C53.2264 102.94 53.2543 103.019 53.2543 103.114C53.2543 103.216 53.2198 103.301 53.1508 103.37C53.0818 103.436 52.9832 103.469 52.8551 103.469H51.4996C51.2926 103.469 51.1152 103.444 50.9673 103.395C50.8195 103.346 50.7061 103.267 50.6273 103.158C50.5484 103.047 50.509 102.899 50.509 102.715C50.509 102.567 50.5336 102.419 50.5829 102.271C50.6355 102.123 50.7078 101.989 50.7998 101.867C50.8918 101.742 50.9986 101.644 51.1201 101.571C51.245 101.496 51.3797 101.458 51.5243 101.458C51.7214 101.458 51.8939 101.519 52.0418 101.64C52.1897 101.762 52.3047 101.923 52.3868 102.123C52.4723 102.324 52.515 102.542 52.515 102.779C52.515 103.15 52.4361 103.466 52.2784 103.725C52.1207 103.985 51.8956 104.185 51.6032 104.326C51.3107 104.471 50.9624 104.555 50.5583 104.578ZM52.862 103.469L52.9113 102.779C53.1085 102.779 53.2596 102.769 53.3648 102.749C53.4699 102.73 53.5422 102.693 53.5816 102.641C53.6243 102.585 53.6457 102.506 53.6457 102.404C53.6457 102.312 53.6325 102.202 53.6063 102.074C53.5833 101.946 53.552 101.813 53.5126 101.675C53.4765 101.537 53.437 101.41 53.3943 101.295L54.0745 101.108C54.1172 101.22 54.1583 101.349 54.1977 101.497C54.2371 101.645 54.27 101.798 54.2963 101.956C54.3226 102.11 54.3357 102.26 54.3357 102.404C54.3357 102.628 54.2996 102.81 54.2273 102.951C54.155 103.089 54.0531 103.196 53.9217 103.272C53.7936 103.347 53.6391 103.4 53.4584 103.429C53.2777 103.456 53.0789 103.469 52.862 103.469ZM54.0794 104.612C53.9841 104.612 53.902 104.578 53.833 104.509C53.7673 104.443 53.7344 104.364 53.7344 104.272C53.7344 104.177 53.7673 104.095 53.833 104.026C53.902 103.957 53.9841 103.922 54.0794 103.922C54.1714 103.922 54.2503 103.957 54.316 104.026C54.3817 104.095 54.4146 104.177 54.4146 104.272C54.4146 104.364 54.3817 104.443 54.316 104.509C54.2503 104.578 54.1714 104.612 54.0794 104.612ZM53.2267 104.612C53.1315 104.612 53.0493 104.578 52.9803 104.509C52.9146 104.443 52.8817 104.364 52.8817 104.272C52.8817 104.177 52.9146 104.095 52.9803 104.026C53.0493 103.957 53.1315 103.922 53.2267 103.922C53.3188 103.922 53.3976 103.957 53.4633 104.026C53.529 104.095 53.5619 104.177 53.5619 104.272C53.5619 104.364 53.529 104.443 53.4633 104.509C53.3976 104.578 53.3188 104.612 53.2267 104.612ZM56.1957 103.469C55.8901 103.469 55.6535 103.438 55.486 103.375C55.3217 103.313 55.2067 103.216 55.1409 103.084C55.0752 102.95 55.0374 102.78 55.0276 102.577L54.9241 99.8364H55.6141L55.7176 102.247C55.7242 102.398 55.7406 102.511 55.7669 102.587C55.7932 102.662 55.8425 102.713 55.9148 102.739C55.9903 102.766 56.1004 102.779 56.245 102.779C56.3698 102.779 56.4586 102.812 56.5111 102.877C56.567 102.94 56.5949 103.019 56.5949 103.114C56.5949 103.216 56.5604 103.301 56.4914 103.37C56.4224 103.436 56.3238 103.469 56.1957 103.469ZM56.2024 103.469L56.2517 102.779C56.3273 102.779 56.3913 102.761 56.4439 102.725C56.4998 102.685 56.5573 102.621 56.6164 102.532C56.6756 102.44 56.7446 102.317 56.8234 102.163C56.922 101.966 57.0239 101.811 57.129 101.699C57.2374 101.588 57.3475 101.509 57.4592 101.463C57.5742 101.414 57.6892 101.389 57.8042 101.389C57.9488 101.389 58.0835 101.42 58.2084 101.483C58.3333 101.545 58.4417 101.63 58.5337 101.739C58.6257 101.844 58.6963 101.966 58.7456 102.104C58.7982 102.238 58.8245 102.378 58.8245 102.523C58.8245 102.697 58.7867 102.854 58.7111 102.996C58.6388 103.134 58.537 103.244 58.4055 103.326C58.2774 103.405 58.1295 103.444 57.962 103.444C57.8207 103.444 57.6564 103.42 57.4691 103.37C57.2818 103.321 57.0846 103.217 56.8776 103.06L57.129 102.463C57.2769 102.565 57.4149 102.639 57.543 102.685C57.6744 102.731 57.7829 102.754 57.8683 102.754C57.934 102.754 57.9882 102.748 58.031 102.734C58.0737 102.721 58.1049 102.7 58.1246 102.67C58.1443 102.641 58.1542 102.601 58.1542 102.552C58.1542 102.483 58.1378 102.412 58.1049 102.34C58.072 102.268 58.0277 102.207 57.9718 102.158C57.9192 102.105 57.8568 102.079 57.7845 102.079C57.7155 102.079 57.6564 102.105 57.6071 102.158C57.5611 102.207 57.5151 102.279 57.4691 102.375C57.4264 102.467 57.3738 102.575 57.3114 102.7C57.2358 102.851 57.1619 102.978 57.0896 103.079C57.0173 103.178 56.9401 103.257 56.8579 103.316C56.7791 103.372 56.6854 103.411 56.577 103.434C56.4718 103.457 56.347 103.469 56.2024 103.469Z" fill="#1A3E2E"/>
<path d="M71.6272 103.306C71.6272 103.231 71.6338 103.142 71.6469 103.04C71.66 102.938 71.6847 102.823 71.7208 102.695C71.757 102.564 71.8112 102.417 71.8835 102.256L72.4897 102.468C72.4536 102.57 72.4224 102.664 72.3961 102.749C72.3698 102.831 72.3501 102.909 72.3369 102.981C72.3238 103.05 72.3172 103.119 72.3172 103.188C72.3172 103.336 72.3534 103.464 72.4256 103.572C72.5012 103.684 72.6031 103.77 72.7312 103.829C72.8627 103.891 73.0138 103.922 73.1847 103.922C73.464 103.922 73.6775 103.876 73.8254 103.784C73.9766 103.696 74.0784 103.554 74.131 103.36C74.1868 103.163 74.2082 102.909 74.1951 102.596L74.0965 99.8364H74.7914L74.8654 102.168C74.8719 102.332 74.8949 102.458 74.9344 102.547C74.9738 102.636 75.0346 102.697 75.1167 102.73C75.2022 102.762 75.3122 102.779 75.447 102.779C75.5718 102.779 75.6605 102.812 75.7131 102.877C75.7657 102.94 75.792 103.019 75.792 103.114C75.792 103.216 75.7575 103.301 75.6885 103.37C75.6195 103.436 75.5225 103.469 75.3977 103.469C75.3254 103.469 75.2482 103.459 75.166 103.439C75.0839 103.42 75.005 103.388 74.9294 103.346C74.8539 103.303 74.7881 103.247 74.7323 103.178C74.6764 103.106 74.6386 103.017 74.6189 102.912L74.8851 102.779C74.8851 103.111 74.8457 103.392 74.7668 103.622C74.6912 103.852 74.5795 104.037 74.4316 104.179C74.2871 104.32 74.108 104.422 73.8944 104.484C73.6841 104.55 73.441 104.583 73.165 104.583C72.9547 104.583 72.7559 104.556 72.5686 104.504C72.3846 104.451 72.2219 104.372 72.0806 104.267C71.9393 104.162 71.8276 104.029 71.7455 103.868C71.6666 103.71 71.6272 103.523 71.6272 103.306ZM75.3977 103.469L75.447 102.779C75.6442 102.779 75.7953 102.769 75.9005 102.749C76.0056 102.73 76.0779 102.693 76.1173 102.641C76.1601 102.585 76.1814 102.506 76.1814 102.404C76.1814 102.312 76.1683 102.202 76.142 102.074C76.119 101.946 76.0878 101.813 76.0483 101.675C76.0122 101.537 75.9728 101.41 75.9301 101.295L76.6102 101.108C76.6529 101.22 76.694 101.349 76.7334 101.497C76.7729 101.645 76.8057 101.798 76.832 101.956C76.8583 102.11 76.8714 102.26 76.8714 102.404C76.8714 102.628 76.8353 102.81 76.763 102.951C76.6907 103.089 76.5889 103.196 76.4574 103.272C76.3293 103.347 76.1748 103.4 75.9941 103.429C75.8134 103.456 75.6146 103.469 75.3977 103.469ZM76.6151 104.612C76.5199 104.612 76.4377 104.578 76.3687 104.509C76.303 104.443 76.2701 104.364 76.2701 104.272C76.2701 104.177 76.303 104.095 76.3687 104.026C76.4377 103.957 76.5199 103.922 76.6151 103.922C76.7071 103.922 76.786 103.957 76.8517 104.026C76.9174 104.095 76.9503 104.177 76.9503 104.272C76.9503 104.364 76.9174 104.443 76.8517 104.509C76.786 104.578 76.7071 104.612 76.6151 104.612ZM75.7625 104.612C75.6672 104.612 75.585 104.578 75.516 104.509C75.4503 104.443 75.4175 104.364 75.4175 104.272C75.4175 104.177 75.4503 104.095 75.516 104.026C75.585 103.957 75.6672 103.922 75.7625 103.922C75.8545 103.922 75.9333 103.957 75.9991 104.026C76.0648 104.095 76.0976 104.177 76.0976 104.272C76.0976 104.364 76.0648 104.443 75.9991 104.509C75.9333 104.578 75.8545 104.612 75.7625 104.612ZM77.2479 104.583L76.9965 103.972C77.1707 103.912 77.33 103.843 77.4746 103.765C77.6225 103.686 77.7506 103.599 77.859 103.503C77.9675 103.408 78.0513 103.305 78.1104 103.193C78.1695 103.078 78.1991 102.955 78.1991 102.823C78.1991 102.685 78.1679 102.534 78.1055 102.37C78.043 102.205 77.9675 102.038 77.8788 101.867L78.5244 101.557C78.5836 101.658 78.6345 101.768 78.6772 101.887C78.7232 102.002 78.761 102.105 78.7906 102.197C78.8201 102.289 78.8399 102.352 78.8497 102.385C78.8957 102.542 78.9581 102.647 79.037 102.7C79.1192 102.753 79.2506 102.779 79.4313 102.779C79.5562 102.779 79.6449 102.812 79.6975 102.877C79.7533 102.94 79.7812 103.019 79.7812 103.114C79.7812 103.216 79.7467 103.301 79.6777 103.37C79.6087 103.436 79.5102 103.469 79.382 103.469C79.2473 103.469 79.129 103.449 79.0271 103.41C78.9253 103.37 78.8431 103.313 78.7807 103.237C78.7216 103.162 78.6838 103.073 78.6674 102.971L78.8497 103.075C78.83 103.249 78.7725 103.413 78.6772 103.567C78.5852 103.725 78.4653 103.87 78.3174 104.001C78.1695 104.133 78.0036 104.248 77.8196 104.346C77.6356 104.445 77.445 104.524 77.2479 104.583ZM79.3879 103.469L79.4372 102.779C79.5818 102.779 79.6951 102.769 79.7773 102.749C79.8627 102.73 79.9235 102.693 79.9596 102.641C79.9958 102.585 80.0139 102.506 80.0139 102.404C80.0139 102.312 80.0007 102.202 79.9744 102.074C79.9514 101.946 79.9202 101.813 79.8808 101.675C79.8414 101.537 79.8019 101.41 79.7625 101.295L80.4427 101.108C80.4821 101.22 80.5215 101.349 80.5609 101.497C80.6004 101.645 80.6332 101.798 80.6595 101.956C80.6891 102.11 80.7039 102.26 80.7039 102.404C80.7039 102.585 80.6809 102.738 80.6349 102.863C80.5889 102.984 80.5248 103.086 80.4427 103.168C80.3638 103.247 80.2685 103.309 80.1568 103.355C80.0484 103.398 79.9284 103.428 79.797 103.444C79.6656 103.461 79.5292 103.469 79.3879 103.469ZM79.9941 104.602C79.8989 104.602 79.8167 104.57 79.7477 104.504C79.682 104.438 79.6491 104.358 79.6491 104.262C79.6491 104.167 79.682 104.083 79.7477 104.011C79.8167 103.942 79.8989 103.908 79.9941 103.908C80.0894 103.908 80.1699 103.942 80.2357 104.011C80.3047 104.083 80.3392 104.167 80.3392 104.262C80.3392 104.358 80.3047 104.438 80.2357 104.504C80.1699 104.57 80.0894 104.602 79.9941 104.602ZM81.3366 103.444L81.243 100.181H81.933L82.0267 103.444H81.3366ZM81.0656 99.8659L80.9818 99.5209C81.0968 99.5012 81.1822 99.4848 81.2381 99.4716C81.2972 99.4585 81.3597 99.4437 81.4254 99.4273L81.3761 99.5505C81.2906 99.5209 81.2085 99.4634 81.1296 99.378C81.0541 99.2893 81.0163 99.1891 81.0163 99.0773C81.0163 98.9591 81.0426 98.8638 81.0951 98.7915C81.1477 98.7192 81.2151 98.6666 81.2972 98.6338C81.3794 98.6009 81.4648 98.5845 81.5535 98.5845C81.6028 98.5845 81.6488 98.5878 81.6915 98.5943C81.7375 98.6009 81.7786 98.6108 81.8147 98.6239L81.7753 98.9788C81.7424 98.9722 81.7096 98.9656 81.6767 98.9591C81.6439 98.9525 81.6077 98.9492 81.5683 98.9492C81.5256 98.9492 81.4862 98.964 81.45 98.9936C81.4172 99.0198 81.4007 99.0527 81.4007 99.0921C81.4007 99.148 81.4204 99.1973 81.4599 99.24C81.4993 99.2827 81.5453 99.3172 81.5979 99.3435C81.6537 99.3665 81.6997 99.3796 81.7359 99.3829L81.4648 99.4125C81.5535 99.3895 81.6373 99.3665 81.7162 99.3435C81.795 99.3172 81.869 99.2909 81.938 99.2646L82.0365 99.5949C81.9544 99.6244 81.8575 99.6573 81.7457 99.6934C81.6373 99.7263 81.5239 99.7575 81.4057 99.7871C81.2906 99.8167 81.1773 99.8429 81.0656 99.8659Z" fill="#1A3E2E"/>
<path d="M94.2019 104.588C93.9654 104.588 93.7518 104.56 93.5612 104.504C93.3706 104.451 93.2063 104.371 93.0683 104.262C92.9303 104.154 92.8235 104.019 92.748 103.858C92.6757 103.701 92.6395 103.517 92.6395 103.306C92.6395 103.231 92.6461 103.142 92.6592 103.04C92.6724 102.938 92.697 102.823 92.7332 102.695C92.7693 102.564 92.8235 102.417 92.8958 102.256L93.5021 102.468C93.4659 102.57 93.4347 102.664 93.4084 102.749C93.3821 102.831 93.3624 102.909 93.3493 102.981C93.3361 103.05 93.3295 103.119 93.3295 103.188C93.3295 103.316 93.3591 103.434 93.4183 103.543C93.4774 103.651 93.5727 103.737 93.7041 103.799C93.8356 103.865 94.0081 103.898 94.2216 103.898C94.4188 103.898 94.5831 103.875 94.7145 103.829C94.846 103.786 94.9495 103.725 95.025 103.646C95.1006 103.571 95.1548 103.482 95.1877 103.38C95.2205 103.278 95.237 103.168 95.237 103.05C95.237 102.958 95.2255 102.854 95.2025 102.739C95.1828 102.624 95.1532 102.5 95.1138 102.365C95.0743 102.227 95.03 102.082 94.9807 101.931L95.6707 101.754C95.7036 101.879 95.7298 101.985 95.7496 102.074C95.7726 102.163 95.7923 102.237 95.8087 102.296C95.8251 102.352 95.8383 102.398 95.8481 102.434C95.881 102.532 95.9204 102.608 95.9664 102.661C96.0157 102.71 96.0699 102.743 96.1291 102.759C96.1915 102.776 96.2605 102.784 96.3361 102.784C96.3985 102.784 96.456 102.774 96.5086 102.754C96.5612 102.734 96.6088 102.693 96.6515 102.631C96.6975 102.565 96.7386 102.465 96.7747 102.33C96.8109 102.196 96.8437 102.01 96.8733 101.773L97.5239 101.877C97.5108 101.952 97.4976 102.033 97.4845 102.118C97.4713 102.204 97.4598 102.284 97.45 102.36C97.4401 102.432 97.4352 102.491 97.4352 102.537C97.4352 102.58 97.4467 102.619 97.4697 102.656C97.496 102.692 97.542 102.721 97.6077 102.744C97.6734 102.767 97.7671 102.779 97.8886 102.779C97.9774 102.779 98.0546 102.771 98.1203 102.754C98.186 102.734 98.2369 102.7 98.2731 102.651C98.3092 102.598 98.3273 102.524 98.3273 102.429C98.3273 102.347 98.3141 102.248 98.2879 102.133C98.2616 102.015 98.2271 101.887 98.1844 101.749C98.1449 101.611 98.0989 101.469 98.0464 101.325L98.7413 101.118C98.7939 101.259 98.8399 101.41 98.8793 101.571C98.922 101.729 98.9549 101.883 98.9779 102.035C99.0042 102.182 99.0173 102.312 99.0173 102.424C99.0173 102.598 98.991 102.751 98.9385 102.882C98.8892 103.014 98.8152 103.124 98.7167 103.213C98.6214 103.298 98.5047 103.362 98.3667 103.405C98.2287 103.447 98.0743 103.469 97.9034 103.469C97.7786 103.469 97.6636 103.456 97.5584 103.429C97.4565 103.4 97.3678 103.359 97.2923 103.306C97.22 103.254 97.1641 103.19 97.1247 103.114C97.0852 103.035 97.0672 102.946 97.0705 102.848H97.238C97.1888 103.029 97.1214 103.163 97.036 103.252C96.9505 103.341 96.8552 103.4 96.7501 103.429C96.6449 103.456 96.5382 103.469 96.4297 103.469C96.3443 103.469 96.2621 103.461 96.1833 103.444C96.1044 103.428 96.0321 103.401 95.9664 103.365C95.904 103.326 95.8498 103.275 95.8038 103.213C95.7578 103.147 95.7266 103.068 95.7101 102.976L95.8925 103.173C95.8859 103.397 95.8416 103.595 95.7594 103.77C95.6773 103.944 95.5623 104.092 95.4144 104.213C95.2698 104.335 95.094 104.427 94.887 104.489C94.6833 104.555 94.4549 104.588 94.2019 104.588ZM99.3432 104.578L99.0918 103.947C99.3744 103.848 99.6028 103.74 99.7769 103.622C99.9544 103.503 100.084 103.377 100.166 103.242C100.252 103.107 100.294 102.968 100.294 102.823C100.294 102.731 100.281 102.636 100.255 102.537C100.229 102.435 100.191 102.329 100.142 102.217C100.096 102.105 100.04 101.989 99.9741 101.867L100.62 101.557C100.735 101.777 100.823 101.987 100.886 102.187C100.952 102.388 100.984 102.575 100.984 102.749C100.984 102.91 100.963 103.065 100.92 103.213C100.881 103.36 100.819 103.498 100.733 103.627C100.651 103.758 100.544 103.881 100.413 103.996C100.281 104.111 100.127 104.216 99.9494 104.312C99.772 104.41 99.5699 104.499 99.3432 104.578ZM102.843 103.469C102.538 103.469 102.301 103.438 102.134 103.375C101.969 103.313 101.854 103.216 101.789 103.084C101.723 102.95 101.685 102.78 101.675 102.577L101.572 99.8364H102.262L102.365 102.247C102.372 102.398 102.388 102.511 102.415 102.587C102.441 102.662 102.49 102.713 102.563 102.739C102.638 102.766 102.748 102.779 102.893 102.779C103.018 102.779 103.106 102.812 103.159 102.877C103.215 102.94 103.243 103.019 103.243 103.114C103.243 103.216 103.208 103.301 103.139 103.37C103.07 103.436 102.972 103.469 102.843 103.469ZM102.85 103.469L102.899 102.779C102.975 102.779 103.039 102.761 103.092 102.725C103.148 102.685 103.205 102.621 103.264 102.532C103.323 102.44 103.392 102.317 103.471 102.163C103.57 101.966 103.672 101.811 103.777 101.699C103.885 101.588 103.995 101.509 104.107 101.463C104.222 101.414 104.337 101.389 104.452 101.389C104.597 101.389 104.731 101.42 104.856 101.483C104.981 101.545 105.089 101.63 105.181 101.739C105.273 101.844 105.344 101.966 105.393 102.104C105.446 102.238 105.472 102.378 105.472 102.523C105.472 102.697 105.434 102.854 105.359 102.996C105.287 103.134 105.185 103.244 105.053 103.326C104.925 103.405 104.777 103.444 104.61 103.444C104.468 103.444 104.304 103.42 104.117 103.37C103.93 103.321 103.732 103.217 103.525 103.06L103.777 102.463C103.925 102.565 104.063 102.639 104.191 102.685C104.322 102.731 104.431 102.754 104.516 102.754C104.582 102.754 104.636 102.748 104.679 102.734C104.721 102.721 104.753 102.7 104.772 102.67C104.792 102.641 104.802 102.601 104.802 102.552C104.802 102.483 104.786 102.412 104.753 102.34C104.72 102.268 104.675 102.207 104.62 102.158C104.567 102.105 104.505 102.079 104.432 102.079C104.363 102.079 104.304 102.105 104.255 102.158C104.209 102.207 104.163 102.279 104.117 102.375C104.074 102.467 104.022 102.575 103.959 102.7C103.884 102.851 103.81 102.978 103.737 103.079C103.665 103.178 103.588 103.257 103.506 103.316C103.427 103.372 103.333 103.411 103.225 103.434C103.12 103.457 102.995 103.469 102.85 103.469Z" fill="#1A3E2E"/>
<path d="M115.508 104.583L115.257 103.972C115.431 103.912 115.591 103.843 115.735 103.765C115.883 103.686 116.011 103.599 116.12 103.503C116.228 103.408 116.312 103.305 116.371 103.193C116.43 103.078 116.46 102.955 116.46 102.823C116.46 102.685 116.429 102.534 116.366 102.37C116.304 102.205 116.228 102.038 116.139 101.867L116.785 101.557C116.844 101.658 116.895 101.768 116.938 101.887C116.984 102.002 117.022 102.105 117.051 102.197C117.081 102.289 117.1 102.352 117.11 102.385C117.156 102.542 117.219 102.647 117.298 102.7C117.38 102.753 117.511 102.779 117.692 102.779C117.817 102.779 117.906 102.812 117.958 102.877C118.014 102.94 118.042 103.019 118.042 103.114C118.042 103.216 118.007 103.301 117.938 103.37C117.869 103.436 117.771 103.469 117.643 103.469C117.508 103.469 117.39 103.449 117.288 103.41C117.186 103.37 117.104 103.313 117.041 103.237C116.982 103.162 116.944 103.073 116.928 102.971L117.11 103.075C117.091 103.249 117.033 103.413 116.938 103.567C116.846 103.725 116.726 103.87 116.578 104.001C116.43 104.133 116.264 104.248 116.08 104.346C115.896 104.445 115.706 104.524 115.508 104.583ZM117.649 103.469L117.698 102.779C117.895 102.779 118.046 102.769 118.151 102.749C118.256 102.73 118.329 102.693 118.368 102.641C118.411 102.585 118.432 102.506 118.432 102.404C118.432 102.312 118.419 102.202 118.393 102.074C118.37 101.946 118.339 101.813 118.299 101.675C118.263 101.537 118.224 101.41 118.181 101.295L118.861 101.108C118.904 101.22 118.945 101.349 118.984 101.497C119.024 101.645 119.057 101.798 119.083 101.956C119.109 102.11 119.122 102.26 119.122 102.404C119.122 102.628 119.086 102.81 119.014 102.951C118.942 103.089 118.84 103.196 118.708 103.272C118.58 103.347 118.426 103.4 118.245 103.429C118.064 103.456 117.865 103.469 117.649 103.469ZM118.866 104.612C118.771 104.612 118.688 104.578 118.619 104.509C118.554 104.443 118.521 104.364 118.521 104.272C118.521 104.177 118.554 104.095 118.619 104.026C118.688 103.957 118.771 103.922 118.866 103.922C118.958 103.922 119.037 103.957 119.103 104.026C119.168 104.095 119.201 104.177 119.201 104.272C119.201 104.364 119.168 104.443 119.103 104.509C119.037 104.578 118.958 104.612 118.866 104.612ZM118.013 104.612C117.918 104.612 117.836 104.578 117.767 104.509C117.701 104.443 117.668 104.364 117.668 104.272C117.668 104.177 117.701 104.095 117.767 104.026C117.836 103.957 117.918 103.922 118.013 103.922C118.105 103.922 118.184 103.957 118.25 104.026C118.316 104.095 118.348 104.177 118.348 104.272C118.348 104.364 118.316 104.443 118.25 104.509C118.184 104.578 118.105 104.612 118.013 104.612ZM119.814 103.444L119.711 99.8364H120.401L120.504 103.444H119.814ZM120.721 104.583L120.47 103.972C120.644 103.912 120.803 103.843 120.948 103.765C121.096 103.686 121.224 103.599 121.332 103.503C121.441 103.408 121.525 103.305 121.584 103.193C121.643 103.078 121.672 102.955 121.672 102.823C121.672 102.685 121.641 102.534 121.579 102.37C121.516 102.205 121.441 102.038 121.352 101.867L121.998 101.557C122.057 101.658 122.108 101.768 122.151 101.887C122.197 102.002 122.234 102.105 122.264 102.197C122.293 102.289 122.313 102.352 122.323 102.385C122.369 102.542 122.431 102.647 122.51 102.7C122.592 102.753 122.724 102.779 122.905 102.779C123.03 102.779 123.118 102.812 123.171 102.877C123.227 102.94 123.255 103.019 123.255 103.114C123.255 103.216 123.22 103.301 123.151 103.37C123.082 103.436 122.984 103.469 122.855 103.469C122.721 103.469 122.602 103.449 122.5 103.41C122.399 103.37 122.316 103.313 122.254 103.237C122.195 103.162 122.157 103.073 122.141 102.971L122.323 103.075C122.303 103.249 122.246 103.413 122.151 103.567C122.059 103.725 121.939 103.87 121.791 104.001C121.643 104.133 121.477 104.248 121.293 104.346C121.109 104.445 120.918 104.524 120.721 104.583ZM122.861 103.469L122.911 102.779C123.035 102.779 123.134 102.767 123.206 102.744C123.282 102.721 123.341 102.675 123.384 102.606C123.43 102.534 123.467 102.429 123.497 102.291C123.53 102.153 123.563 101.969 123.596 101.739L124.241 101.847C124.235 101.897 124.225 101.954 124.212 102.02C124.202 102.086 124.192 102.153 124.182 102.222C124.176 102.288 124.172 102.35 124.172 102.409C124.172 102.488 124.189 102.555 124.222 102.611C124.258 102.664 124.32 102.705 124.409 102.734C124.501 102.764 124.632 102.779 124.803 102.779C124.928 102.779 125.017 102.812 125.069 102.877C125.122 102.94 125.148 103.019 125.148 103.114C125.148 103.216 125.114 103.301 125.045 103.37C124.979 103.436 124.882 103.469 124.754 103.469C124.527 103.469 124.343 103.447 124.202 103.405C124.061 103.362 123.955 103.29 123.886 103.188C123.817 103.086 123.773 102.946 123.753 102.769H123.99C123.931 102.927 123.862 103.053 123.783 103.148C123.704 103.24 123.615 103.309 123.517 103.355C123.418 103.401 123.313 103.431 123.201 103.444C123.093 103.461 122.98 103.469 122.861 103.469ZM123.739 104.602C123.643 104.602 123.561 104.57 123.492 104.504C123.426 104.438 123.394 104.358 123.394 104.262C123.394 104.167 123.426 104.083 123.492 104.011C123.561 103.942 123.643 103.908 123.739 103.908C123.834 103.908 123.914 103.942 123.98 104.011C124.049 104.083 124.084 104.167 124.084 104.262C124.084 104.358 124.049 104.438 123.98 104.504C123.914 104.57 123.834 104.602 123.739 104.602ZM124.753 103.469L124.802 102.784C125.075 102.784 125.293 102.782 125.458 102.779C125.625 102.776 125.755 102.769 125.847 102.759C125.942 102.746 126.013 102.731 126.059 102.715C126.105 102.695 126.144 102.674 126.177 102.651C126.217 102.621 126.25 102.582 126.276 102.532C126.305 102.48 126.328 102.411 126.345 102.325C126.361 102.24 126.369 102.133 126.369 102.005C126.369 101.844 126.355 101.709 126.325 101.601C126.299 101.489 126.259 101.405 126.207 101.349C126.158 101.294 126.097 101.266 126.024 101.266C125.972 101.266 125.923 101.284 125.877 101.32C125.831 101.353 125.793 101.399 125.763 101.458C125.734 101.517 125.719 101.584 125.719 101.66C125.719 101.703 125.73 101.741 125.753 101.773C125.776 101.806 125.813 101.831 125.862 101.847C125.911 101.864 125.974 101.872 126.049 101.872C126.121 101.872 126.197 101.864 126.276 101.847C126.358 101.828 126.434 101.801 126.503 101.768L126.522 102.355C126.47 102.391 126.409 102.424 126.34 102.454C126.271 102.483 126.197 102.506 126.118 102.523C126.043 102.536 125.965 102.542 125.886 102.542C125.712 102.542 125.561 102.519 125.433 102.473C125.308 102.424 125.211 102.345 125.142 102.237C125.073 102.128 125.039 101.98 125.039 101.793C125.039 101.649 125.063 101.506 125.113 101.364C125.162 101.22 125.233 101.09 125.325 100.975C125.417 100.857 125.525 100.763 125.65 100.694C125.775 100.622 125.913 100.586 126.064 100.586C126.287 100.586 126.471 100.651 126.616 100.783C126.764 100.911 126.872 101.085 126.941 101.305C127.013 101.522 127.05 101.764 127.05 102.03C127.05 102.263 127.015 102.467 126.946 102.641C126.877 102.812 126.795 102.946 126.7 103.045C126.621 103.127 126.53 103.196 126.429 103.252C126.327 103.308 126.202 103.352 126.054 103.385C125.909 103.415 125.73 103.436 125.517 103.449C125.307 103.462 125.052 103.469 124.753 103.469ZM126.054 100.127C125.952 100.127 125.865 100.093 125.793 100.024C125.724 99.9547 125.689 99.8692 125.689 99.7674C125.689 99.6655 125.724 99.5784 125.793 99.5062C125.865 99.4339 125.952 99.3977 126.054 99.3977C126.153 99.3977 126.236 99.4339 126.305 99.5062C126.378 99.5784 126.414 99.6655 126.414 99.7674C126.414 99.8692 126.378 99.9547 126.305 100.024C126.236 100.093 126.153 100.127 126.054 100.127Z" fill="#1A3E2E"/>
<path d="M139.024 104.583L138.772 103.972C138.947 103.912 139.106 103.843 139.251 103.765C139.398 103.686 139.527 103.599 139.635 103.503C139.743 103.408 139.827 103.305 139.886 103.193C139.946 103.078 139.975 102.955 139.975 102.823C139.975 102.685 139.944 102.534 139.881 102.37C139.819 102.205 139.743 102.038 139.655 101.867L140.3 101.557C140.36 101.658 140.41 101.768 140.453 101.887C140.499 102.002 140.537 102.105 140.567 102.197C140.596 102.289 140.616 102.352 140.626 102.385C140.672 102.542 140.734 102.647 140.813 102.7C140.895 102.753 141.027 102.779 141.207 102.779C141.332 102.779 141.421 102.812 141.473 102.877C141.529 102.94 141.557 103.019 141.557 103.114C141.557 103.216 141.523 103.301 141.454 103.37C141.385 103.436 141.286 103.469 141.158 103.469C141.023 103.469 140.905 103.449 140.803 103.41C140.701 103.37 140.619 103.313 140.557 103.237C140.498 103.162 140.46 103.073 140.443 102.971L140.626 103.075C140.606 103.249 140.548 103.413 140.453 103.567C140.361 103.725 140.241 103.87 140.093 104.001C139.946 104.133 139.78 104.248 139.596 104.346C139.412 104.445 139.221 104.524 139.024 104.583ZM141.164 103.469L141.213 102.779C141.41 102.779 141.561 102.769 141.667 102.749C141.772 102.73 141.844 102.693 141.883 102.641C141.926 102.585 141.948 102.506 141.948 102.404C141.948 102.312 141.934 102.202 141.908 102.074C141.885 101.946 141.854 101.813 141.814 101.675C141.778 101.537 141.739 101.41 141.696 101.295L142.376 101.108C142.419 101.22 142.46 101.349 142.5 101.497C142.539 101.645 142.572 101.798 142.598 101.956C142.624 102.11 142.638 102.26 142.638 102.404C142.638 102.628 142.601 102.81 142.529 102.951C142.457 103.089 142.355 103.196 142.224 103.272C142.095 103.347 141.941 103.4 141.76 103.429C141.58 103.456 141.381 103.469 141.164 103.469ZM142.381 104.612C142.286 104.612 142.204 104.578 142.135 104.509C142.069 104.443 142.036 104.364 142.036 104.272C142.036 104.177 142.069 104.095 142.135 104.026C142.204 103.957 142.286 103.922 142.381 103.922C142.473 103.922 142.552 103.957 142.618 104.026C142.684 104.095 142.716 104.177 142.716 104.272C142.716 104.364 142.684 104.443 142.618 104.509C142.552 104.578 142.473 104.612 142.381 104.612ZM141.529 104.612C141.433 104.612 141.351 104.578 141.282 104.509C141.216 104.443 141.184 104.364 141.184 104.272C141.184 104.177 141.216 104.095 141.282 104.026C141.351 103.957 141.433 103.922 141.529 103.922C141.621 103.922 141.699 103.957 141.765 104.026C141.831 104.095 141.864 104.177 141.864 104.272C141.864 104.364 141.831 104.443 141.765 104.509C141.699 104.578 141.621 104.612 141.529 104.612ZM144.498 103.469C144.192 103.469 143.955 103.438 143.788 103.375C143.624 103.313 143.509 103.216 143.443 103.084C143.377 102.95 143.339 102.78 143.329 102.577L143.226 99.8364H143.916L144.019 102.247C144.026 102.398 144.042 102.511 144.069 102.587C144.095 102.662 144.144 102.713 144.217 102.739C144.292 102.766 144.402 102.779 144.547 102.779C144.672 102.779 144.76 102.812 144.813 102.877C144.869 102.94 144.897 103.019 144.897 103.114C144.897 103.216 144.862 103.301 144.793 103.37C144.724 103.436 144.626 103.469 144.498 103.469ZM144.504 103.469L144.554 102.779C144.678 102.779 144.777 102.767 144.849 102.744C144.925 102.721 144.984 102.675 145.027 102.606C145.073 102.534 145.11 102.429 145.14 102.291C145.173 102.153 145.206 101.969 145.239 101.739L145.884 101.847C145.878 101.897 145.868 101.954 145.855 102.02C145.845 102.086 145.835 102.153 145.825 102.222C145.819 102.288 145.815 102.35 145.815 102.409C145.815 102.488 145.832 102.555 145.865 102.611C145.901 102.664 145.963 102.705 146.052 102.734C146.144 102.764 146.275 102.779 146.446 102.779C146.571 102.779 146.66 102.812 146.712 102.877C146.765 102.94 146.791 103.019 146.791 103.114C146.791 103.216 146.757 103.301 146.688 103.37C146.622 103.436 146.525 103.469 146.397 103.469C146.17 103.469 145.986 103.447 145.845 103.405C145.704 103.362 145.598 103.29 145.529 103.188C145.46 103.086 145.416 102.946 145.396 102.769H145.633C145.574 102.927 145.505 103.053 145.426 103.148C145.347 103.24 145.258 103.309 145.16 103.355C145.061 103.401 144.956 103.431 144.844 103.444C144.736 103.461 144.623 103.469 144.504 103.469ZM145.51 101.236C145.408 101.236 145.321 101.202 145.248 101.133C145.179 101.064 145.145 100.978 145.145 100.876C145.145 100.774 145.179 100.687 145.248 100.615C145.321 100.543 145.408 100.507 145.51 100.507C145.608 100.507 145.692 100.543 145.761 100.615C145.833 100.687 145.87 100.774 145.87 100.876C145.87 100.978 145.833 101.064 145.761 101.133C145.692 101.202 145.608 101.236 145.51 101.236ZM146.396 103.469L146.445 102.779C146.642 102.779 146.793 102.769 146.899 102.749C147.004 102.73 147.076 102.693 147.115 102.641C147.158 102.585 147.18 102.506 147.18 102.404C147.18 102.312 147.166 102.202 147.14 102.074C147.117 101.946 147.086 101.813 147.046 101.675C147.01 101.537 146.971 101.41 146.928 101.295L147.608 101.108C147.651 101.22 147.692 101.349 147.732 101.497C147.771 101.645 147.804 101.798 147.83 101.956C147.856 102.11 147.87 102.26 147.87 102.404C147.87 102.628 147.833 102.81 147.761 102.951C147.689 103.089 147.587 103.196 147.456 103.272C147.327 103.347 147.173 103.4 146.992 103.429C146.811 103.456 146.613 103.469 146.396 103.469ZM147.613 104.612C147.518 104.612 147.436 104.578 147.367 104.509C147.301 104.443 147.268 104.364 147.268 104.272C147.268 104.177 147.301 104.095 147.367 104.026C147.436 103.957 147.518 103.922 147.613 103.922C147.705 103.922 147.784 103.957 147.85 104.026C147.916 104.095 147.948 104.177 147.948 104.272C147.948 104.364 147.916 104.443 147.85 104.509C147.784 104.578 147.705 104.612 147.613 104.612ZM146.761 104.612C146.665 104.612 146.583 104.578 146.514 104.509C146.448 104.443 146.416 104.364 146.416 104.272C146.416 104.177 146.448 104.095 146.514 104.026C146.583 103.957 146.665 103.922 146.761 103.922C146.853 103.922 146.931 103.957 146.997 104.026C147.063 104.095 147.096 104.177 147.096 104.272C147.096 104.364 147.063 104.443 146.997 104.509C146.931 104.578 146.853 104.612 146.761 104.612Z" fill="#1A3E2E"/>
</svg>
