<svg width="27" height="26" viewBox="0 0 27 26" fill="none" xmlns="http://www.w3.org/2000/svg">
<path d="M6.116 20C5.65533 20 5.271 19.846 4.963 19.538C4.655 19.23 4.50067 18.8453 4.5 18.384V3.50001C4.5 3.35801 4.548 3.23934 4.644 3.14401C4.74 3.04867 4.859 3.00067 5.001 3.00001C5.143 2.99934 5.26167 3.04734 5.357 3.14401C5.45233 3.24067 5.5 3.35934 5.5 3.50001V18.385C5.5 18.5383 5.564 18.6793 5.692 18.808C5.82 18.9367 5.961 19.0007 6.115 19H21C21.142 19 21.2607 19.048 21.356 19.144C21.4513 19.24 21.4993 19.359 21.5 19.501C21.5007 19.643 21.4527 19.7617 21.356 19.857C21.2593 19.9523 21.1407 20 21 20H6.116ZM9.116 16.5C8.90866 16.5 8.735 16.43 8.595 16.29C8.455 16.15 8.385 15.9767 8.385 15.77V9.922C8.385 9.71534 8.455 9.542 8.595 9.402C8.735 9.262 8.90833 9.192 9.115 9.192H9.577C9.80566 9.192 9.99766 9.26967 10.153 9.425C10.3077 9.581 10.385 9.77434 10.385 10.005V15.694C10.385 15.9247 10.3073 16.1163 10.152 16.269C9.99733 16.4223 9.80566 16.499 9.577 16.499L9.116 16.5ZM13.616 16.5C13.4087 16.5 13.235 16.43 13.095 16.29C12.955 16.15 12.885 15.9767 12.885 15.77V5.00001C12.885 4.77134 12.9623 4.57967 13.117 4.42501C13.2717 4.27034 13.4633 4.19267 13.692 4.19201H14.154C14.3607 4.19201 14.534 4.26201 14.674 4.40201C14.814 4.54201 14.884 4.71567 14.884 4.92301V15.693C14.884 15.9217 14.807 16.1133 14.653 16.268C14.4977 16.4227 14.3057 16.5 14.077 16.5H13.616ZM18.116 16.5C17.9087 16.5 17.735 16.43 17.595 16.29C17.455 16.15 17.385 15.9767 17.385 15.77V14C17.385 13.7713 17.4623 13.5797 17.617 13.425C17.7717 13.2703 17.9633 13.1927 18.192 13.192H18.654C18.8607 13.192 19.034 13.262 19.174 13.402C19.314 13.542 19.384 13.7157 19.384 13.923V15.693C19.384 15.9217 19.307 16.1133 19.153 16.268C18.999 16.4227 18.807 16.5 18.577 16.5H18.116Z" fill="#B1B1B1"/>
</svg>
