<svg width="27" height="26" viewBox="0 0 27 26" fill="none" xmlns="http://www.w3.org/2000/svg">
<path d="M6.99999 20.5834H10.9997V15.0833C10.9997 14.8356 11.0838 14.6279 11.2521 14.4604C11.4196 14.2921 11.6273 14.208 11.875 14.208H15.125C15.3727 14.208 15.5807 14.2921 15.749 14.4604C15.9165 14.6279 16.0003 14.8356 16.0003 15.0833V20.5834H20V11.1671C20 11.0558 19.9758 10.9547 19.9274 10.8637C19.879 10.7727 19.8129 10.6933 19.7292 10.6254L13.8965 6.22922C13.7853 6.13244 13.6531 6.08405 13.5 6.08405C13.3469 6.08405 13.2151 6.13244 13.1046 6.22922L7.27082 10.6254C7.18777 10.6947 7.12168 10.7742 7.07257 10.8637C7.02346 10.9533 6.99927 11.0544 6.99999 11.1671V20.5834ZM5.91666 20.5834V11.1671C5.91666 10.8897 5.97877 10.6272 6.10299 10.3795C6.22721 10.1317 6.39838 9.92772 6.61649 9.76738L12.4502 5.34955C12.7557 5.11627 13.1046 4.99963 13.4967 4.99963C13.8889 4.99963 14.2399 5.11627 14.5497 5.34955L20.3835 9.7663C20.6023 9.92663 20.7735 10.131 20.897 10.3795C21.0212 10.6272 21.0833 10.8897 21.0833 11.1671V20.5834C21.0833 20.8737 20.9754 21.1269 20.7594 21.3428C20.5435 21.5587 20.2903 21.6667 20 21.6667H15.7923C15.5439 21.6667 15.3359 21.5829 15.1683 21.4154C15.0008 21.2471 14.917 21.0391 14.917 20.7914V15.2924H12.083V20.7914C12.083 21.0398 11.9992 21.2478 11.8317 21.4154C11.6641 21.5829 11.4565 21.6667 11.2087 21.6667H6.99999C6.70966 21.6667 6.45652 21.5587 6.24057 21.3428C6.02463 21.1269 5.91666 20.8737 5.91666 20.5834Z" fill="#2D6A4F"/>
</svg>
