<svg width="27" height="26" viewBox="0 0 27 26" fill="none" xmlns="http://www.w3.org/2000/svg">
<path d="M17.0275 15.3791C17.0268 15.5139 16.9731 15.6431 16.8778 15.7385C16.7826 15.834 16.6536 15.8881 16.5188 15.8891H11.085C10.9497 15.8891 10.82 15.8353 10.7244 15.7397C10.6287 15.644 10.575 15.5143 10.575 15.3791C10.575 15.2438 10.6287 15.1141 10.7244 15.0184C10.82 14.9228 10.9497 14.8691 11.085 14.8691H16.5188C16.6538 14.8697 16.7831 14.9237 16.8786 15.0192C16.9742 15.1147 17.0281 15.244 17.0288 15.3791M16.52 12.1528H11.085C10.9543 12.1593 10.831 12.2158 10.7408 12.3106C10.6506 12.4054 10.6002 12.5313 10.6002 12.6622C10.6002 12.7931 10.6506 12.919 10.7408 13.0138C10.831 13.1086 10.9543 13.1651 11.085 13.1716H16.5188C16.6495 13.1651 16.7727 13.1086 16.863 13.0138C16.9532 12.919 17.0035 12.7931 17.0035 12.6622C17.0035 12.5313 16.9532 12.4054 16.863 12.3106C16.7727 12.2158 16.6507 12.1593 16.52 12.1528ZM21.1038 6.54906V20.8128C21.1039 20.9689 21.0733 21.1234 21.0137 21.2676C20.9541 21.4118 20.8667 21.5429 20.7564 21.6533C20.6461 21.7637 20.5151 21.8513 20.371 21.911C20.2268 21.9708 20.0723 22.0016 19.9163 22.0016H7.6875C7.37256 22.0016 7.07051 21.8764 6.84781 21.6537C6.62511 21.431 6.5 21.129 6.5 20.8141V6.54781C6.49984 6.39176 6.53043 6.2372 6.59003 6.09299C6.64964 5.94877 6.73708 5.81771 6.84737 5.70731C6.95766 5.59691 7.08862 5.50932 7.23278 5.44957C7.37693 5.38981 7.53145 5.35906 7.6875 5.35906H10.8438C11.2096 4.93276 11.6634 4.5906 12.1738 4.35602C12.6843 4.12145 13.2395 4 13.8013 4C14.363 4 14.9182 4.12145 15.4287 4.35602C15.9391 4.5906 16.3929 4.93276 16.7588 5.35906H19.9138C20.0698 5.35889 20.2244 5.38949 20.3686 5.44909C20.5128 5.50869 20.6438 5.59614 20.7542 5.70642C20.8646 5.81671 20.9522 5.94767 21.012 6.09183C21.0717 6.23599 21.1025 6.39051 21.1025 6.54656M10.915 7.90531V8.07406H16.6875V7.90531C16.6955 7.52114 16.6267 7.13924 16.4852 6.78199C16.3438 6.42474 16.1324 6.09933 15.8635 5.82481C15.5947 5.5503 15.2737 5.3322 14.9195 5.18331C14.5653 5.03442 14.1849 4.95773 13.8006 4.95773C13.4164 4.95773 13.036 5.03442 12.6818 5.18331C12.3275 5.3322 12.0066 5.5503 11.7377 5.82481C11.4689 6.09933 11.2575 6.42474 11.116 6.78199C10.9745 7.13924 10.907 7.52114 10.915 7.90531ZM20.0825 6.54656C20.0825 6.52423 20.0781 6.50212 20.0696 6.4815C20.061 6.46087 20.0485 6.44213 20.0327 6.42635C20.0169 6.41056 19.9982 6.39804 19.9776 6.3895C19.9569 6.38095 19.9348 6.37656 19.9125 6.37656H17.3938C17.6 6.85906 17.7063 7.37906 17.7063 7.90531V8.58406C17.7056 8.71911 17.6517 8.84845 17.5561 8.94395C17.4606 9.03946 17.3313 9.0934 17.1963 9.09406H10.4063C10.2712 9.0934 10.1419 9.03946 10.0464 8.94395C9.95085 8.84845 9.89691 8.71911 9.89625 8.58406V7.90531C9.89625 7.38031 10.0025 6.85906 10.2088 6.37656H7.6875C7.66518 6.37656 7.64307 6.38095 7.62244 6.3895C7.60182 6.39804 7.58308 6.41056 7.56729 6.42635C7.55151 6.44213 7.53898 6.46087 7.53044 6.4815C7.5219 6.50212 7.5175 6.52423 7.5175 6.54656V20.8103C7.5175 20.8554 7.53541 20.8986 7.56729 20.9305C7.59917 20.9624 7.64241 20.9803 7.6875 20.9803H19.9138C19.9588 20.9803 20.0021 20.9624 20.034 20.9305C20.0658 20.8986 20.0838 20.8554 20.0838 20.8103L20.0825 6.54656Z" fill="#B1B1B1"/>
</svg>
